<svg width="115" height="119" viewBox="0 0 115 119" fill="none" xmlns="http://www.w3.org/2000/svg">
<rect x="9.37435" y="60.5965" width="16.315" height="69.3388" rx="8.15751" transform="rotate(-45 9.37435 60.5965)" fill="#EBEFF3" stroke="black" stroke-width="4.07875"/>
<rect x="20.9095" y="49.06" width="16.315" height="69.3388" rx="8.15751" transform="rotate(-45 20.9095 49.06)" fill="#EBEFF3" stroke="black" stroke-width="4.07875"/>
<rect x="32.4466" y="37.5236" width="16.315" height="69.3388" rx="8.15751" transform="rotate(-45 32.4466 37.5236)" fill="#EBEFF3" stroke="black" stroke-width="4.07875"/>
<rect x="43.9837" y="25.9871" width="16.315" height="69.3388" rx="8.15751" transform="rotate(-45 43.9837 25.9871)" fill="#EBEFF3" stroke="black" stroke-width="4.07875"/>
<rect x="10.0951" y="74.296" width="84.6342" height="16.315" rx="8.15751" transform="rotate(-45 10.0951 74.296)" fill="#EBEFF3" stroke="black" stroke-width="4.07875"/>
<rect x="21.6302" y="85.8325" width="84.6342" height="16.315" rx="8.15751" transform="rotate(-45 21.6302 85.8325)" fill="#EBEFF3" stroke="black" stroke-width="4.07875"/>
<rect x="33.1673" y="97.369" width="84.6342" height="16.315" rx="8.15751" transform="rotate(-45 33.1673 97.369)" fill="#EBEFF3" stroke="black" stroke-width="4.07875"/>
<rect x="14.4199" y="67.0858" width="67.2995" height="53.0238" rx="4.07875" transform="rotate(-45 14.4199 67.0858)" fill="#EBEFF3"/>
<circle cx="40.3786" cy="67.8068" r="2.54922" transform="rotate(-45 40.3786 67.8068)" fill="black"/>
<circle cx="52.6364" cy="55.5493" r="2.54922" transform="rotate(-45 52.6364 55.5493)" fill="black"/>
<circle cx="64.8942" cy="43.2918" r="2.54922" transform="rotate(-45 64.8942 43.2918)" fill="black"/>
<circle cx="52.6364" cy="80.0642" r="2.54922" transform="rotate(-45 52.6364 80.0642)" fill="black"/>
<circle cx="64.8942" cy="67.8068" r="2.54922" transform="rotate(-45 64.8942 67.8068)" fill="black"/>
<circle cx="77.152" cy="55.5493" r="2.54922" transform="rotate(-45 77.152 55.5493)" fill="black"/>
<path d="M48.0044 39.1075L40.0527 9.36261L93.358 16.7252L99.5426 36.1625L75.6878 45.8811L60.9625 36.1625L48.0044 39.1075Z" fill="#EBEFF3"/>
<path d="M42.998 28.2109L48.0046 39.1075L60.9628 36.1625L75.688 45.8811L87.4682 43.2306" stroke="black" stroke-width="4.07875"/>
<path d="M55.9551 3.67553L60.5371 2L58.4543 8.28324L55.9551 3.67553Z" stroke="black" stroke-width="2.17198"/>
<path d="M81.7808 5.35106L80.1147 8.28324L84.2801 7.02659L81.7808 5.35106Z" stroke="black" stroke-width="2.17198"/>
<path d="M86.3628 23.363L78.4485 25.0385L84.2801 31.3218L86.3628 23.363Z" stroke="black" stroke-width="2.17198"/>
</svg>
