<svg width="37" height="38" viewBox="0 0 37 38" fill="none" xmlns="http://www.w3.org/2000/svg">
<path d="M18.5821 37.4664C28.6449 37.4664 36.9864 29.1438 36.9864 19.081C36.9864 9.01821 28.626 0.69559 18.5821 0.69559C8.51927 0.69559 0.196644 9.01821 0.196644 19.081C0.196644 29.1438 8.53818 37.4664 18.5821 37.4664ZM18.5821 34.0807C10.2784 34.0807 3.62027 27.4036 3.62027 19.081C3.62027 10.7584 10.2595 4.08138 18.5821 4.08138C26.8858 4.08138 33.5628 10.7584 33.5817 19.081C33.6006 27.4036 26.9047 34.0807 18.5821 34.0807ZM9.40827 21.1806H18.5821C19.3387 21.1806 19.925 20.5942 19.925 19.8376V7.97788C19.925 7.22128 19.3387 6.63492 18.5821 6.63492C17.8255 6.63492 17.2391 7.22128 17.2391 7.97788V18.4947H9.40827C8.65167 18.4947 8.06531 19.081 8.06531 19.8376C8.06531 20.5942 8.65167 21.1806 9.40827 21.1806Z" fill="black"/>
</svg>
